<?xml version="1.0" encoding="UTF-8" standalone="no"?>
<svg
   width="968.30676"
   height="430.01532"
   version="1.1"
   id="svg340"
   sodipodi:docname="JNW_GR06.svg"
   inkscape:version="1.2.2 (b0a8486541, 2022-12-01)"
   xmlns:inkscape="http://www.inkscape.org/namespaces/inkscape"
   xmlns:sodipodi="http://sodipodi.sourceforge.net/DTD/sodipodi-0.dtd"
   xmlns="http://www.w3.org/2000/svg"
   xmlns:svg="http://www.w3.org/2000/svg">
  <defs
     id="defs344" />
  <sodipodi:namedview
     id="namedview342"
     pagecolor="#505050"
     bordercolor="#eeeeee"
     borderopacity="1"
     inkscape:showpageshadow="0"
     inkscape:pageopacity="0"
     inkscape:pagecheckerboard="0"
     inkscape:deskcolor="#505050"
     showgrid="false"
     inkscape:zoom="0.85862966"
     inkscape:cx="440.23636"
     inkscape:cy="210.80101"
     inkscape:window-width="1920"
     inkscape:window-height="1020"
     inkscape:window-x="0"
     inkscape:window-y="0"
     inkscape:window-maximized="1"
     inkscape:current-layer="svg340" />
  <style
     type="text/css"
     id="style2">
.l0{
  fill: #ffffff;
  stroke: #ffffff;
  stroke-linecap:round;
  stroke-linejoin:round;
  stroke-width: 0.844328;
}
.l1{
  fill: #0044ee;
  stroke: #0044ee;
  stroke-linecap:round;
  stroke-linejoin:round;
  stroke-width: 0.844328;
}
.l2{
  fill: #aaaaaa; fill-opacity: 0.2;
  stroke: #aaaaaa;
  stroke-linecap:round;
  stroke-linejoin:round;
  stroke-width: 0.844328;
}
.l3{
  fill: #222222; fill-opacity: 0.5;
  stroke: #222222;
  stroke-linecap:round;
  stroke-linejoin:round;
  stroke-width: 0.844328;
}
.l4{
  fill: #229900;
  stroke: #229900;
  stroke-linecap:round;
  stroke-linejoin:round;
  stroke-width: 0.844328;
}
.l5{
  fill: #bb2200;
  stroke: #bb2200;
  stroke-linecap:round;
  stroke-linejoin:round;
  stroke-width: 0.844328;
}
.l6{
  fill: #00ccee; fill-opacity: 0.5;
  stroke: #00ccee;
  stroke-linecap:round;
  stroke-linejoin:round;
  stroke-width: 0.844328;
}
.l7{
  fill: #ff0000; fill-opacity: 0.5;
  stroke: #ff0000;
  stroke-linecap:round;
  stroke-linejoin:round;
  stroke-width: 0.844328;
}
.l8{
  fill: #888800; fill-opacity: 0.5;
  stroke: #888800;
  stroke-linecap:round;
  stroke-linejoin:round;
  stroke-width: 0.844328;
}
.l9{
  fill: #00aaaa; fill-opacity: 0.5;
  stroke: #00aaaa;
  stroke-linecap:round;
  stroke-linejoin:round;
  stroke-width: 0.844328;
}
.l10{
  fill: #880088;
  stroke: #880088;
  stroke-linecap:round;
  stroke-linejoin:round;
  stroke-width: 0.844328;
}
.l11{
  fill: #00ff00; fill-opacity: 0.5;
  stroke: #00ff00;
  stroke-linecap:round;
  stroke-linejoin:round;
  stroke-width: 0.844328;
}
.l12{
  fill: #0000cc; fill-opacity: 0.5;
  stroke: #0000cc;
  stroke-linecap:round;
  stroke-linejoin:round;
  stroke-width: 0.844328;
}
.l13{
  fill: #666600; fill-opacity: 0.5;
  stroke: #666600;
  stroke-linecap:round;
  stroke-linejoin:round;
  stroke-width: 0.844328;
}
.l14{
  fill: #557755; fill-opacity: 0.2;
  stroke: #557755;
  stroke-linecap:round;
  stroke-linejoin:round;
  stroke-width: 0.844328;
}
.l15{
  fill: #aa2222; fill-opacity: 0.5;
  stroke: #aa2222;
  stroke-linecap:round;
  stroke-linejoin:round;
  stroke-width: 0.844328;
}
.l16{
  fill: #7ccc40; fill-opacity: 0.5;
  stroke: #7ccc40;
  stroke-linecap:round;
  stroke-linejoin:round;
  stroke-width: 0.844328;
}
.l17{
  fill: #00ffcc; fill-opacity: 0.2;
  stroke: #00ffcc;
  stroke-linecap:round;
  stroke-linejoin:round;
  stroke-width: 0.844328;
}
.l18{
  fill: #ce0097; fill-opacity: 0.5;
  stroke: #ce0097;
  stroke-linecap:round;
  stroke-linejoin:round;
  stroke-width: 0.844328;
}
.l19{
  fill: #d2d46b; fill-opacity: 0.2;
  stroke: #d2d46b;
  stroke-linecap:round;
  stroke-linejoin:round;
  stroke-width: 0.844328;
}
.l20{
  fill: #ef6158; fill-opacity: 0.2;
  stroke: #ef6158;
  stroke-linecap:round;
  stroke-linejoin:round;
  stroke-width: 0.844328;
}
.l21{
  fill: #fdb200; fill-opacity: 0.2;
  stroke: #fdb200;
  stroke-linecap:round;
  stroke-linejoin:round;
  stroke-width: 0.844328;
}
text {font-family: Sans-Serif;}
</style>
  <rect
     class="l0"
     x="0.42216355"
     y="0.42215952"
     width="967.4624"
     height="429.17099"
     id="rect4" />
  <text
     fill="#0044ee"
     xml:space="preserve"
     font-size="13.4154px"
     id="text6"
     x="115.2673"
     y="109.34916">VDD</text>
  <text
     fill="#0044ee"
     xml:space="preserve"
     font-size="13.4154px"
     id="text8"
     x="0"
     y="429.88116">VSS</text>
  <text
     fill="#0044ee"
     xml:space="preserve"
     font-size="13.4154px"
     id="text10"
     x="547.86432"
     y="313.10217">CAP</text>
  <text
     fill="#0044ee"
     xml:space="preserve"
     font-size="13.4154px"
     id="text12"
     x="329.1673"
     y="367.33817">reset</text>
  <text
     fill="#0044ee"
     xml:space="preserve"
     font-size="13.4154px"
     id="text14"
     x="940.7113"
     y="132.80316">OUT</text>
  <text
     fill="#ff0000"
     xml:space="preserve"
     font-size="6.09792px"
     id="text16"
     x="545.91034"
     y="338.21817">c0</text>
  <text
     fill="#ff0000"
     xml:space="preserve"
     font-size="6.09792px"
     id="text18"
     x="545.91034"
     y="374.37515">c1</text>
  <text
     fill="#666600"
     xml:space="preserve"
     font-size="8.13057px"
     id="text20"
     x="555.68231"
     y="376.22116">m=30</text>
  <text
     fill="#222222"
     xml:space="preserve"
     font-size="8.13057px"
     id="text22"
     x="553.72729"
     y="339.08615">C1</text>
  <text
     fill="#666600"
     xml:space="preserve"
     font-size="8.13057px"
     id="text24"
     x="553.72729"
     y="366.44916">1 / 1</text>
  <text
     fill="#222222"
     xml:space="preserve"
     font-size="8.13057px"
     id="text26"
     x="553.72729"
     y="352.76715">cap_mim_m3_2</text>
  <text
     fill="#666600"
     xml:space="preserve"
     font-size="8.13057px"
     id="text28"
     x="487.1373"
     y="368.40317">C=8.28e-14</text>
  <text
     fill="#222222"
     xml:space="preserve"
     font-size="12.1958px"
     id="text30"
     x="254.6953"
     y="114.30117">temp_affected_current</text>
  <text
     fill="#222222"
     xml:space="preserve"
     font-size="8.13057px"
     id="text32"
     x="338.7373"
     y="113.73716">x1</text>
  <text
     fill="#222222"
     xml:space="preserve"
     font-size="8.13057px"
     id="text34"
     x="225.3783"
     y="108.26417">VDD</text>
  <text
     fill="#222222"
     xml:space="preserve"
     font-size="8.13057px"
     id="text36"
     x="403.82431"
     y="108.26417">OUT</text>
  <text
     fill="#222222"
     xml:space="preserve"
     font-size="8.13057px"
     id="text38"
     x="225.3783"
     y="123.90017">VSS</text>
  <text
     fill="#222222"
     xml:space="preserve"
     font-size="12.1958px"
     id="text40"
     x="728.4563"
     y="63.485161">OTA</text>
  <text
     fill="#222222"
     xml:space="preserve"
     font-size="8.13057px"
     id="text42"
     x="733.53833"
     y="211.46014">x3</text>
  <text
     fill="#222222"
     xml:space="preserve"
     font-size="8.13057px"
     id="text44"
     x="699.90228"
     y="58.285164">VDD</text>
  <text
     fill="#222222"
     xml:space="preserve"
     font-size="8.13057px"
     id="text46"
     x="600.63531"
     y="100.44616">IN+</text>
  <text
     fill="#222222"
     xml:space="preserve"
     font-size="8.13057px"
     id="text48"
     x="600.63531"
     y="155.17114">IN-</text>
  <text
     fill="#222222"
     xml:space="preserve"
     font-size="8.13057px"
     id="text50"
     x="794.71729"
     y="123.90017">OUT</text>
  <text
     fill="#222222"
     xml:space="preserve"
     font-size="8.13057px"
     id="text52"
     x="701.90228"
     y="206.82516">VSS</text>
  <text
     fill="#222222"
     xml:space="preserve"
     font-size="8.13057px"
     id="text54"
     x="506.82031"
     y="22.463171">R2</text>
  <text
     fill="#222222"
     xml:space="preserve"
     font-size="8.13057px"
     id="text56"
     x="449.36731"
     y="36.144173">AC=10k</text>
  <text
     fill="#666600"
     xml:space="preserve"
     font-size="8.13057px"
     id="text58"
     x="482.27631"
     y="12.691169">1</text>
  <text
     fill="#666600"
     xml:space="preserve"
     font-size="8.13057px"
     id="text60"
     x="482.27631"
     y="45.917168">2</text>
  <text
     fill="#222222"
     xml:space="preserve"
     font-size="8.13057px"
     id="text62"
     x="506.82031"
     y="34.190163">m=1</text>
  <text
     fill="#222222"
     xml:space="preserve"
     font-size="8.13057px"
     id="text64"
     x="449.36731"
     y="24.418158">DC=30k</text>
  <text
     fill="#222222"
     xml:space="preserve"
     font-size="8.13057px"
     id="text66"
     x="506.82031"
     y="194.45615">R1</text>
  <text
     fill="#222222"
     xml:space="preserve"
     font-size="8.13057px"
     id="text68"
     x="454.36731"
     y="208.13715">AC=2k</text>
  <text
     fill="#666600"
     xml:space="preserve"
     font-size="8.13057px"
     id="text70"
     x="482.27631"
     y="184.68414">1</text>
  <text
     fill="#666600"
     xml:space="preserve"
     font-size="8.13057px"
     id="text72"
     x="482.27631"
     y="217.90915">2</text>
  <text
     fill="#222222"
     xml:space="preserve"
     font-size="8.13057px"
     id="text74"
     x="506.82031"
     y="206.18317">m=1</text>
  <text
     fill="#222222"
     xml:space="preserve"
     font-size="8.13057px"
     id="text76"
     x="449.36731"
     y="196.41016">DC=20k</text>
  <text
     fill="#222222"
     xml:space="preserve"
     font-size="6.50445px"
     id="text78"
     x="432.5513"
     y="348.26816">JNWATR_NCH_4C5F0</text>
  <text
     fill="#222222"
     xml:space="preserve"
     font-size="6.50445px"
     id="text80"
     x="432.5513"
     y="383.44818">x2</text>
  <path
     class="l4"
     d="m 542.0013,356.13416 v 21.499"
     id="path82" />
  <path
     class="l4"
     d="m 542.0013,330.72616 v 19.545"
     id="path84" />
  <path
     class="l4"
     d="m 534.1833,350.27116 h 15.636"
     id="path86" />
  <path
     class="l4"
     style="fill:none"
     d="m 549.8193,358.08916 a 16.6129,16.6129 0 0 0 -15.636,0"
     id="path88" />
  <path
     class="l4"
     d="m 221.4693,96.191164 h 203.264"
     id="path90" />
  <path
     class="l4"
     d="m 221.4693,127.46216 h 203.264"
     id="path92" />
  <path
     class="l4"
     d="M 221.4693,96.191164 V 127.46216"
     id="path94" />
  <path
     class="l4"
     d="M 424.7333,96.191164 V 127.46216"
     id="path96" />
  <path
     class="l4"
     d="m 205.8333,104.00916 h 15.636"
     id="path98" />
  <path
     class="l4"
     d="m 424.7333,104.00916 h 15.636"
     id="path100" />
  <path
     class="l4"
     d="m 205.8333,119.64416 h 15.636"
     id="path102" />
  <path
     class="l4"
     d="m 698.3583,49.284164 v 39.089"
     id="path104" />
  <path
     class="l4"
     d="m 698.3583,166.55116 v 46.908"
     id="path106" />
  <path
     class="l4"
     d="m 760.9013,127.46216 h 54.725"
     id="path108" />
  <path
     class="l4"
     d="m 596.7263,104.00916 h 62.542"
     id="path110" />
  <path
     class="l4"
     d="m 596.7263,143.09816 h 62.542"
     id="path112" />
  <path
     class="l4"
     style="fill:none"
     d="M 659.2683,64.919164 V 190.00516 l 101.633,-62.543 -101.633,-62.542996"
     id="path114" />
  <path
     class="l4"
     style="fill:none"
     d="m 627.9973,49.284164 h 187.629 V 213.45916 h -218.9 V 49.284164 h 31.271"
     id="path116" />
  <path
     class="l4"
     d="m 495.0943,41.466164 v 7.818"
     id="path118" />
  <path
     class="l4"
     d="m 495.0943,41.466164 5.863,-1.955"
     id="path120" />
  <path
     class="l4"
     d="m 489.2303,35.602164 11.727,3.909"
     id="path122" />
  <path
     class="l4"
     d="m 489.2303,35.602164 11.727,-3.908"
     id="path124" />
  <path
     class="l4"
     d="m 489.2303,27.785164 11.727,3.909"
     id="path126" />
  <path
     class="l4"
     d="m 489.2303,27.785164 11.727,-3.909"
     id="path128" />
  <path
     class="l4"
     d="m 489.2303,19.967164 11.727,3.909"
     id="path130" />
  <path
     class="l4"
     d="m 489.2303,19.967164 11.727,-3.909"
     id="path132" />
  <path
     class="l4"
     d="m 489.2303,12.149164 11.727,3.909"
     id="path134" />
  <path
     class="l4"
     d="m 489.2303,12.149164 5.864,-1.955"
     id="path136" />
  <path
     class="l4"
     d="m 495.0943,2.377164 v 7.817"
     id="path138" />
  <path
     class="l4"
     d="m 497.0483,8.240164 h 3.909"
     id="path140" />
  <path
     class="l4"
     d="m 499.0033,6.286164 v 3.908"
     id="path142" />
  <path
     class="l4"
     d="m 495.0943,213.45916 v 7.817"
     id="path144" />
  <path
     class="l4"
     d="m 495.0943,213.45916 5.863,-1.955"
     id="path146" />
  <path
     class="l4"
     d="m 489.2303,207.59516 11.727,3.909"
     id="path148" />
  <path
     class="l4"
     d="m 489.2303,207.59516 11.727,-3.909"
     id="path150" />
  <path
     class="l4"
     d="m 489.2303,199.77716 11.727,3.909"
     id="path152" />
  <path
     class="l4"
     d="m 489.2303,199.77716 11.727,-3.909"
     id="path154" />
  <path
     class="l4"
     d="m 489.2303,191.96016 11.727,3.908"
     id="path156" />
  <path
     class="l4"
     d="m 489.2303,191.96016 11.727,-3.909"
     id="path158" />
  <path
     class="l4"
     d="m 489.2303,184.14216 11.727,3.909"
     id="path160" />
  <path
     class="l4"
     d="m 489.2303,184.14216 5.864,-1.955"
     id="path162" />
  <path
     class="l4"
     d="m 495.0943,174.36916 v 7.818"
     id="path164" />
  <path
     class="l4"
     d="m 497.0483,180.23316 h 3.909"
     id="path166" />
  <path
     class="l4"
     d="m 499.0033,178.27816 v 3.909"
     id="path168" />
  <path
     class="l4"
     d="m 424.7333,369.81616 7.818,3.909"
     id="path170" />
  <path
     class="l4"
     d="m 424.7333,377.63316 7.818,-3.908"
     id="path172" />
  <path
     class="l4"
     d="m 416.9153,350.27116 h 15.636"
     id="path174" />
  <path
     class="l4"
     d="m 432.5513,338.54416 v 11.727"
     id="path176" />
  <path
     class="l4"
     d="m 416.9153,373.72516 h 15.636"
     id="path178" />
  <path
     class="l4"
     d="m 432.5513,373.72516 v 11.726"
     id="path180" />
  <path
     class="l4"
     d="m 416.9153,361.99816 h 15.636"
     id="path182" />
  <path
     class="l4"
     d="m 416.9153,350.27116 v 23.454"
     id="path184" />
  <path
     class="l4"
     d="m 413.0063,350.27116 v 23.454"
     id="path186" />
  <path
     class="l4"
     d="m 401.2793,361.99816 h 11.727"
     id="path188" />
  <path
     class="l5"
     d="m 155.0173,104.00916 h 3.909"
     id="path190" />
  <path
     class="l5"
     d="m 155.0173,104.00916 -2.932,-3.909 h -6.84 l 2.931,3.909 -2.931,3.909 h 6.84 l 2.932,-3.909"
     id="path192" />
  <path
     class="l5"
     d="m 157.9493,103.03116 h 1.954 v 1.955 h -1.954 z"
     id="path194" />
  <path
     class="l5"
     d="m 37.7495,424.54116 h 3.909"
     id="path196" />
  <path
     class="l5"
     d="m 37.7495,424.54116 -2.9317,-3.909 h -6.8406 l 2.9317,3.909 -2.9317,3.909 h 6.8406 l 2.9317,-3.909"
     id="path198" />
  <path
     class="l5"
     d="m 40.6812,423.56316 h 1.9545 v 1.955 h -1.9545 z"
     id="path200" />
  <path
     class="l5"
     d="m 541.0233,306.29616 h 1.955 v 1.954 h -1.955 z"
     id="path202" />
  <path
     class="l5"
     d="m 373.9173,361.99816 h 3.909"
     id="path204" />
  <path
     class="l5"
     d="m 373.9173,361.99816 -2.932,-3.909 h -6.84 l 2.931,3.909 -2.931,3.909 h 6.84 l 2.932,-3.909"
     id="path206" />
  <path
     class="l5"
     d="m 376.8493,361.02116 h 1.954 v 1.954 h -1.954 z"
     id="path208" />
  <path
     class="l5"
     d="m 540.0463,328.77216 h 3.909 v 3.909 h -3.909 z"
     id="path210" />
  <path
     class="l5"
     d="m 540.0463,375.67916 h 3.909 v 3.909 h -3.909 z"
     id="path212" />
  <path
     class="l5"
     d="m 203.8793,102.05416 h 3.909 v 3.909 h -3.909 z"
     id="path214" />
  <path
     class="l5"
     d="m 438.4143,102.05416 h 3.909 v 3.909 h -3.909 z"
     id="path216" />
  <path
     class="l5"
     d="m 203.8793,117.69016 h 3.909 v 3.909 h -3.909 z"
     id="path218" />
  <path
     class="l5"
     d="m 696.4033,47.329164 h 3.909 v 3.909 h -3.909 z"
     id="path220" />
  <path
     class="l5"
     d="m 594.7713,102.05416 h 3.909 v 3.909 h -3.909 z"
     id="path222" />
  <path
     class="l5"
     d="m 594.7713,141.14316 h 3.909 v 3.909 h -3.909 z"
     id="path224" />
  <path
     class="l5"
     d="m 813.6713,125.50816 h 3.909 v 3.909 h -3.909 z"
     id="path226" />
  <path
     class="l5"
     d="m 696.4033,211.50416 h 3.909 v 3.909 h -3.909 z"
     id="path228" />
  <path
     class="l5"
     d="m 493.1393,0.42216399 h 3.909 V 4.331164 h -3.909 z"
     id="path230" />
  <path
     class="l5"
     d="m 493.1393,47.329164 h 3.909 v 3.909 h -3.909 z"
     id="path232" />
  <path
     class="l5"
     d="m 493.1393,172.41516 h 3.909 v 3.909 h -3.909 z"
     id="path234" />
  <path
     class="l5"
     d="m 493.1393,219.32216 h 3.909 v 3.909 h -3.909 z"
     id="path236" />
  <path
     class="l5"
     d="m 429.4243,335.41716 h 6.254 v 6.254 h -6.254 z"
     id="path238" />
  <path
     class="l5"
     d="m 398.1523,358.87116 h 6.255 v 6.254 h -6.255 z"
     id="path240" />
  <path
     class="l5"
     d="m 429.4243,382.32416 h 6.254 v 6.254 h -6.254 z"
     id="path242" />
  <path
     class="l5"
     d="m 429.4243,358.87116 h 6.254 v 6.254 h -6.254 z"
     id="path244" />
  <path
     class="l5"
     d="m 925.0753,127.46216 h 6.841"
     id="path246" />
  <path
     class="l5"
     d="m 938.7573,127.46216 -2.932,-3.909 h -6.841 l 2.932,3.909 -2.932,3.909 h 6.841 l 2.932,-3.909"
     id="path248" />
  <path
     class="l5"
     d="m 924.0983,126.48516 h 1.955 v 1.954 h -1.955 z"
     id="path250" />
  <path
     class="l1"
     d="M 41.6585,424.54116 H 542.0013"
     id="path252" />
  <path
     class="l1"
     d="m 440.3693,104.00916 h 101.632"
     id="path254" />
  <path
     class="l1"
     d="m 542.0013,104.00916 v 23.453"
     id="path256" />
  <path
     class="l1"
     d="m 542.0013,190.00516 v 31.271"
     id="path258" />
  <path
     class="l1"
     d="m 542.0013,174.36916 v 15.636"
     id="path260" />
  <path
     class="l1"
     d="m 542.0013,268.18416 v 54.725"
     id="path262" />
  <path
     class="l1"
     d="m 432.5513,330.72616 v 7.818"
     id="path264" />
  <path
     class="l1"
     d="m 542.0013,424.54116 h 336.167"
     id="path266" />
  <path
     class="l1"
     d="m 432.5513,385.45116 v 39.09"
     id="path268" />
  <path
     class="l1"
     d="m 432.5513,361.99816 h 31.271"
     id="path270" />
  <path
     class="l1"
     d="m 377.8263,361.99816 h 23.453"
     id="path272" />
  <path
     class="l1"
     d="m 432.5513,307.27316 v 23.453"
     id="path274" />
  <path
     class="l1"
     d="m 432.5513,307.27316 h 109.45"
     id="path276" />
  <path
     class="l1"
     d="m 463.8223,361.99816 v 62.543"
     id="path278" />
  <path
     class="l1"
     d="m 542.0013,322.90916 v 7.817"
     id="path280" />
  <path
     class="l1"
     d="m 542.0013,377.63316 v 46.908"
     id="path282" />
  <path
     class="l1"
     d="m 205.8333,119.64416 v 304.897"
     id="path284" />
  <path
     class="l1"
     d="m 158.9263,104.00916 h 46.907"
     id="path286" />
  <path
     class="l1"
     d="m 542.0013,127.46216 v 46.907"
     id="path288" />
  <path
     class="l1"
     d="m 542.0013,104.00916 h 54.725"
     id="path290" />
  <path
     class="l1"
     d="m 502.9113,143.09816 h 93.815"
     id="path292" />
  <path
     class="l1"
     d="M 495.0943,49.284164 V 174.36916"
     id="path294" />
  <path
     class="l1"
     d="m 495.0943,143.09816 h 7.817"
     id="path296" />
  <path
     class="l1"
     d="m 205.8333,221.27616 h 289.261"
     id="path298" />
  <path
     class="l1"
     d="m 205.8333,2.377164 h 289.261"
     id="path300" />
  <path
     class="l1"
     d="M 205.8333,2.377164 V 104.00916"
     id="path302" />
  <path
     class="l1"
     d="m 698.3583,2.377164 v 46.907"
     id="path304" />
  <path
     class="l1"
     d="m 495.0943,2.377164 h 203.264"
     id="path306" />
  <path
     class="l1"
     d="m 698.3583,213.45916 v 211.082"
     id="path308" />
  <path
     class="l1"
     d="m 815.6263,127.46216 h 109.449"
     id="path310" />
  <path
     class="l1"
     d="m 542.0013,221.27616 v 46.908"
     id="path312" />
  <circle
     class="l1"
     cx="542.00128"
     cy="424.54114"
     r="2.8926101"
     id="circle314" />
  <circle
     class="l1"
     cx="205.8333"
     cy="221.27615"
     r="2.8926101"
     id="circle316" />
  <circle
     class="l1"
     cx="205.8333"
     cy="424.54114"
     r="2.8926101"
     id="circle318" />
  <circle
     class="l1"
     cx="542.00128"
     cy="104.00916"
     r="2.8926101"
     id="circle320" />
  <circle
     class="l1"
     cx="542.00128"
     cy="104.00916"
     r="2.8926101"
     id="circle322" />
  <circle
     class="l1"
     cx="542.00128"
     cy="104.00916"
     r="2.8926101"
     id="circle324" />
  <circle
     class="l1"
     cx="698.35834"
     cy="424.54114"
     r="2.8926101"
     id="circle326" />
  <circle
     class="l1"
     cx="495.0943"
     cy="143.09814"
     r="2.8926101"
     id="circle328" />
  <circle
     class="l1"
     cx="542.00128"
     cy="424.54114"
     r="2.8926101"
     id="circle330" />
  <circle
     class="l1"
     cx="463.82233"
     cy="424.54114"
     r="2.8926101"
     id="circle332" />
  <circle
     class="l1"
     cx="542.00128"
     cy="307.27316"
     r="2.8926101"
     id="circle334" />
  <circle
     class="l1"
     cx="432.5513"
     cy="424.54114"
     r="2.8926101"
     id="circle336" />
  <circle
     class="l1"
     cx="542.00128"
     cy="424.54114"
     r="2.8926101"
     id="circle338" />
</svg>
